<svg width="409" height="68" viewBox="0 0 409 68" fill="none" xmlns="http://www.w3.org/2000/svg">
<path fill-rule="evenodd" clip-rule="evenodd" d="M98.6329 49.9793V42.3337H100.084V45.2695C101.333 45.3637 101.778 45.0654 102.581 45.8817C103.736 47.0671 103.299 49.6732 101.801 49.9636C100.762 50.0367 99.7189 50.0367 98.6798 49.9636L98.6329 49.9793ZM69.6668 43.1736V42.3258H71.1105V43.1893C73.0223 43.1893 73.9821 44.1627 74.0055 46.0937C74.0289 48.0247 73.0301 49.0373 71.0949 49.0452V49.9793H69.6434V49.0923C68.6212 48.9353 68.1842 49.0923 67.5365 48.3623C67.0213 47.7473 66.7361 46.9703 66.7304 46.1661C66.7247 45.3618 66.9988 44.5809 67.5053 43.9586C68.1218 43.2756 68.5354 43.2521 69.6668 43.1736ZM38.984 50.0029H37.5326V42.3415H38.9762V45.2773H40.849V42.3258H42.2848V49.9793H40.8412V46.4469H38.945V49.995L38.984 50.0029ZM83.5724 42.3415H88.6134V43.519H86.8343V49.9636L85.3906 50.0186V43.519H83.5959V42.3415H83.5724ZM54.1459 45.2616H56.5416V46.4234H54.1538V48.7783H56.7757V49.9558H52.6945V42.3337H56.7679V43.5111H54.1772V45.2773L54.1459 45.2616ZM34.263 52.4363H106.912L106.983 39.9316H34.2708V52.4363H34.263ZM18.9215 39.9316C19.2571 39.7746 19.3195 39.6098 19.6473 39.39C20.3649 38.9036 21.1901 38.6018 22.0507 38.5108C27.9813 37.9692 30.6344 46.7609 22.1912 49.6889C19.9495 50.4449 17.5156 50.3896 15.3102 49.5324C13.1047 48.6752 11.2662 47.07 10.1123 44.9941C8.95831 42.9182 8.56141 40.5021 8.99014 38.1631C9.41887 35.8242 10.6463 33.7093 12.4604 32.1839C14.2707 30.614 15.9641 30.0881 18.9215 29.829V16.1626C12.6788 15.7466 5.48415 20.4015 2.85441 26.0297C-5.81513 44.5865 15.7378 60.2232 30.2286 48.4879C32.7179 46.4783 32.1014 46.9179 32.1014 43.8801C32.1014 41.8627 32.2341 35.4337 32.1014 34.3191H18.984C18.8599 36.1873 18.8391 38.0611 18.9215 39.9316ZM93.1472 34.2092H96.5963L96.6431 22.8035C97.1113 23.51 98.1179 32.4037 98.5783 34.1935H101.309C101.84 32.3488 102.816 23.5021 103.198 22.7878L103.26 34.1856H106.702L106.748 16.0056H102.246C101.645 17.4343 100.459 27.4113 99.9049 28.4161C99.6474 27.8744 97.954 17.6305 97.6497 16.0606L93.116 16.0056V34.2092H93.1472ZM25.4452 20.0247C26.2255 20.8097 26.8966 24.4833 26.9044 25.9748C26.9044 27.7881 26.3113 30.6846 25.4608 31.9014C23.3461 28.4082 23.7128 23.5728 25.4608 20.0247H25.4452ZM21.9961 22.3796C21.1767 20.1817 21.5747 14.0118 22.1287 11.39C22.5579 9.34904 24.3683 3.83067 25.4296 2.66891C26.6469 3.73648 28.4651 9.60808 28.824 11.4214C29.3888 14.2122 29.5387 17.0719 29.2688 19.9069C29.2064 20.6056 28.902 22.0813 28.902 22.5131C28.5821 19.4674 28.9801 18.2036 27.9734 14.4749C27.6691 13.3289 26.3503 9.33334 25.5856 8.25008C25.5376 8.18155 25.4855 8.11601 25.4296 8.05384C24.6492 9.00365 23.3851 12.8657 22.9481 14.4357C22.1677 17.2066 22.2146 19.4517 21.9961 22.3796ZM25.4374 33.1416C26.5766 32.129 28.3792 28.0079 29.0425 26.0768C30.3118 22.3815 30.8278 18.4667 30.5596 14.5663C30.2915 10.6659 29.2447 6.85982 27.4818 3.37539C26.9026 2.18565 26.2101 1.05523 25.4139 0C23.8533 2.73956 22.9793 3.92487 21.84 7.22176C19.3802 14.649 19.9413 22.7536 23.4007 29.7662C24.259 31.4304 24.8599 32.1211 25.4217 33.1416H25.4374ZM62.0664 34.1935H65.4998L65.5545 18.2585H66.5923L66.6469 34.1856H70.096V16.0213H62.0273V34.1935H62.0664ZM86.2568 19.2319C86.2568 17.8032 87.3571 18.0387 87.3571 19.2319V30.9515C87.3571 31.7365 87.1776 32.0269 86.3582 31.7365L86.2568 30.9515V19.2319ZM84.8366 16.092C82.636 16.4295 82.7687 18.3998 82.7687 20.5742V27.2072C82.7687 31.3048 82.1132 34.1856 85.5233 34.272C91.766 34.374 90.8374 34.4211 90.8374 23.1567C90.8374 21.5868 91.0949 18.1957 90.3614 17.0732C90.0947 16.7128 89.7369 16.431 89.3252 16.257C88.9134 16.083 88.4628 16.0233 88.0204 16.0841C86.9462 16.0324 85.8698 16.0481 84.7976 16.1312L84.8366 16.092ZM44.977 27.3878C44.9146 26.3202 45.2891 22.1441 45.3906 20.5506C45.3906 20.1424 45.4452 19.7656 45.4686 19.3339C45.4527 19.0111 45.5004 18.6883 45.6091 18.3841C45.6034 18.3556 45.6034 18.3262 45.6091 18.2977C45.89 18.8865 46.3114 26.2731 46.2645 27.3878H44.977ZM41.1533 34.217H43.2368C44.7975 34.217 44.4698 35.1276 44.7975 29.4287C45.3426 29.3097 45.9067 29.3097 46.4518 29.4287L46.7718 34.1385H50.1194C50.2208 33.3536 48.4807 17.0496 48.3636 15.9585H42.9013C42.6828 18.0701 41.0285 33.4085 41.1533 34.1464V34.217ZM51.7269 21.8458H55.1604C55.2228 21.1237 55.0823 19.1612 55.2228 18.7059C55.2288 18.5763 55.2822 18.4534 55.3729 18.361C55.4635 18.2686 55.5849 18.2132 55.7137 18.2054C55.8425 18.1976 55.9696 18.238 56.0706 18.3188C56.1716 18.3996 56.2393 18.5151 56.2607 18.6431C56.389 20.1902 56.3733 21.746 56.2138 23.2902C55.8783 24.1458 54.3722 23.8004 53.5139 23.8711V25.8414C55.3555 25.9512 56.3309 25.3704 56.3231 27.5212C56.3231 28.6908 56.604 30.928 56.0656 31.8307C54.9965 31.8935 55.2228 31.2812 55.2228 30.2608C55.2228 29.4758 55.2228 28.6908 55.2228 27.8509H51.7425C51.7425 32.7884 51.2977 34.2249 55.254 34.217C59.4132 34.217 59.8112 34.3348 59.819 28.9577C59.819 27.6232 60.1077 25.8178 58.7577 25.0956C58.3988 24.9151 57.7823 24.9308 57.4624 24.7581L58.6017 24.4127C59.9517 23.769 59.78 22.1127 59.78 20.8882C59.78 18.8315 59.9985 16.8141 58.2193 16.1783C57.158 15.8094 53.3812 15.8722 52.6243 16.5159C51.4304 17.552 51.563 20.2916 51.7191 21.838L51.7269 21.8458ZM75.9173 18.2742L76.7757 18.4076C77.1425 19.4831 76.9708 21.4376 76.9708 22.7643C76.9708 25.0642 77.3141 26.1318 75.8783 26.014V18.2742H75.9173ZM72.4214 34.217H75.9173V28.0471C77.9228 27.9294 79.819 28.2748 80.3184 26.3594C80.6618 25.1192 80.4979 21.8066 80.4979 20.3387C80.4979 15.0166 79.0699 16.0292 72.437 16.0292V34.217H72.4214ZM34.3488 34.217H37.7979V18.2899H40.9192L40.9661 16.0684H34.3176V34.2092L34.3488 34.217ZM71.1339 47.8834C72.3122 47.8834 72.5697 47.3025 72.5619 46.0701C72.5541 44.8377 72.2654 44.3196 71.1417 44.3118V47.8834H71.1339ZM69.6824 47.8834V44.3589C68.5978 44.249 68.27 45.0418 68.2544 46.0937C68.2388 47.1456 68.5588 48.0404 69.6824 47.8834ZM100.116 48.8803C101.247 49.0687 101.832 48.8803 101.793 47.6636C101.754 46.4469 101.192 46.392 100.139 46.494V48.8489L100.116 48.8803Z" fill="white"/>
<path d="M159.915 43.5449H157.912L156.503 39.5638H148.813L147.403 43.5449H145.4L151.879 25.9391H153.461L159.915 43.5449ZM155.959 37.9318L152.695 28.6344L149.381 37.9318H155.959ZM174.859 38.7231C174.859 40.2232 174.389 41.4019 173.449 42.2591C172.526 43.1163 171.248 43.5449 169.616 43.5449H162.767V25.9391H169.394C170.943 25.9391 172.196 26.3677 173.152 27.2249C174.108 28.0656 174.587 29.1784 174.587 30.5631C174.587 31.8324 174.158 32.871 173.301 33.6787C173.02 33.959 172.584 34.231 171.99 34.4947C172.683 34.7915 173.202 35.1129 173.548 35.4591C174.422 36.2998 174.859 37.3878 174.859 38.7231ZM171.792 32.9122C172.402 32.3682 172.707 31.6181 172.707 30.662C172.707 29.7059 172.402 28.9641 171.792 28.4366C171.182 27.8926 170.333 27.6206 169.245 27.6206H164.646V33.7282H169.245C170.333 33.7282 171.182 33.4562 171.792 32.9122ZM172.015 40.998C172.658 40.4046 172.979 39.6133 172.979 38.6242C172.979 37.6351 172.658 36.8521 172.015 36.2751C171.388 35.6981 170.531 35.4096 169.443 35.4096H164.646V41.8635H169.443C170.531 41.8635 171.388 41.575 172.015 40.998ZM189.063 27.6206H183.969V43.5449H182.09V27.6206H176.996V25.9391H189.063V27.6206ZM203.215 30.0933C203.413 31.0164 203.511 32.566 203.511 34.742C203.511 36.918 203.413 38.4676 203.215 39.3907C203.017 40.3139 202.522 41.1711 201.731 41.9624C200.577 43.1163 199.118 43.6933 197.354 43.6933C195.574 43.6933 194.107 43.1163 192.953 41.9624C192.178 41.1876 191.692 40.3386 191.494 39.4155C191.296 38.4923 191.197 36.9345 191.197 34.742C191.197 32.5495 191.296 30.9917 191.494 30.0686C191.692 29.1454 192.178 28.2964 192.953 27.5216C194.107 26.3677 195.574 25.7907 197.354 25.7907C199.118 25.7907 200.577 26.3677 201.731 27.5216C202.522 28.3129 203.017 29.1701 203.215 30.0933ZM201.41 38.7973C201.558 38.006 201.632 36.6543 201.632 34.742C201.632 32.8298 201.558 31.4863 201.41 30.7115C201.261 29.9202 200.923 29.2526 200.396 28.7086C199.572 27.8843 198.558 27.4722 197.354 27.4722C196.151 27.4722 195.137 27.8843 194.313 28.7086C193.785 29.2526 193.447 29.9202 193.299 30.7115C193.151 31.4863 193.077 32.8298 193.077 34.742C193.077 36.6543 193.151 38.006 193.299 38.7973C193.447 39.5721 193.785 40.2315 194.313 40.7755C195.137 41.5997 196.151 42.0118 197.354 42.0118C198.558 42.0118 199.572 41.5997 200.396 40.7755C200.923 40.2315 201.261 39.5721 201.41 38.7973ZM223.031 43.5449H221.152V30.1675L216.33 40.7755H214.723L209.827 30.1675V43.5449H207.947V25.9391H209.827L215.563 38.4264L221.152 25.9391H223.031V43.5449ZM240.4 43.5449H238.397L236.987 39.5638H229.297L227.888 43.5449H225.885L232.363 25.9391H233.946L240.4 43.5449ZM236.443 37.9318L233.179 28.6344L229.866 37.9318H236.443ZM252.04 27.6206H246.946V43.5449H245.067V27.6206H239.973V25.9391H252.04V27.6206ZM267.936 43.5449H266.057V29.1784L257.106 43.5449H255.325V25.9391H257.204V40.2809L266.156 25.9391H267.936V43.5449ZM275.004 43.5449H273.124V25.9391H275.004V43.5449ZM285.612 43.5449H283.114L275.028 34.3464L282.57 25.9391H284.944L277.229 34.2969L285.612 43.5449ZM301.034 43.5449H299.032L297.622 39.5638H289.932L288.522 43.5449H286.52L292.998 25.9391H294.581L301.034 43.5449ZM297.078 37.9318L293.814 28.6344L290.501 37.9318H297.078ZM309.994 37.7093H303.219V36.0526H309.994V37.7093ZM326.012 38.4511C325.699 40.0831 324.998 41.3689 323.91 42.3086C322.822 43.2317 321.487 43.6933 319.904 43.6933C318.124 43.6933 316.657 43.1163 315.503 41.9624C314.728 41.1876 314.242 40.3386 314.044 39.4155C313.846 38.4923 313.747 36.9345 313.747 34.742C313.747 32.5495 313.846 30.9917 314.044 30.0686C314.242 29.1454 314.728 28.2964 315.503 27.5216C316.657 26.3677 318.124 25.7907 319.904 25.7907C321.503 25.7907 322.838 26.2523 323.91 27.1755C324.998 28.0986 325.699 29.3844 326.012 31.0329H324.083C323.852 29.9284 323.366 29.063 322.624 28.4366C321.899 27.7936 320.992 27.4722 319.904 27.4722C318.701 27.4722 317.687 27.8843 316.863 28.7086C316.335 29.2526 315.997 29.9202 315.849 30.7115C315.7 31.4863 315.626 32.8298 315.626 34.742C315.626 36.6543 315.7 38.006 315.849 38.7973C315.997 39.5721 316.335 40.2315 316.863 40.7755C317.687 41.5997 318.701 42.0118 319.904 42.0118C320.992 42.0118 321.907 41.6986 322.649 41.0722C323.407 40.4293 323.902 39.5556 324.132 38.4511H326.012ZM341.088 43.5449H330.159V25.9391H341.088V27.6206H332.038V33.8271H339.753V35.5086H332.038V41.8635H341.088V43.5449ZM356.978 31.1071C356.978 32.6732 356.467 33.9343 355.445 34.8904C354.44 35.83 353.137 36.2998 351.538 36.2998H346.865V43.5449H344.986V25.9391H351.538C353.154 25.9391 354.464 26.4172 355.47 27.3733C356.476 28.3129 356.978 29.5575 356.978 31.1071ZM354.085 33.7282C354.761 33.1183 355.099 32.2446 355.099 31.1071C355.099 29.9696 354.761 29.1042 354.085 28.5107C353.426 27.9173 352.527 27.6206 351.39 27.6206H346.865V34.6184H351.39C352.527 34.6184 353.426 34.3216 354.085 33.7282ZM372.653 38.7231C372.653 40.2232 372.183 41.4019 371.243 42.2591C370.32 43.1163 369.042 43.5449 367.41 43.5449H360.561V25.9391H367.188C368.737 25.9391 369.99 26.3677 370.946 27.2249C371.903 28.0656 372.381 29.1784 372.381 30.5631C372.381 31.8324 371.952 32.871 371.095 33.6787C370.815 33.959 370.378 34.231 369.784 34.4947C370.477 34.7915 370.996 35.1129 371.342 35.4591C372.216 36.2998 372.653 37.3878 372.653 38.7231ZM369.586 32.9122C370.196 32.3682 370.501 31.6181 370.501 30.662C370.501 29.7059 370.196 28.9641 369.586 28.4366C368.976 27.8926 368.127 27.6206 367.039 27.6206H362.44V33.7282H367.039C368.127 33.7282 368.976 33.4562 369.586 32.9122ZM369.809 40.998C370.452 40.4046 370.773 39.6133 370.773 38.6242C370.773 37.6351 370.452 36.8521 369.809 36.2751C369.183 35.6981 368.325 35.4096 367.237 35.4096H362.44V41.8635H367.237C368.325 41.8635 369.183 41.575 369.809 40.998ZM389.689 43.5449H387.81V29.1784L378.858 43.5449H377.078V25.9391H378.957V40.2809L387.909 25.9391H389.689V43.5449ZM406.375 38.4511C406.062 40.0831 405.362 41.3689 404.274 42.3086C403.186 43.2317 401.85 43.6933 400.268 43.6933C398.487 43.6933 397.02 43.1163 395.866 41.9624C395.091 41.1876 394.605 40.3386 394.407 39.4155C394.21 38.4923 394.111 36.9345 394.111 34.742C394.111 32.5495 394.21 30.9917 394.407 30.0686C394.605 29.1454 395.091 28.2964 395.866 27.5216C397.02 26.3677 398.487 25.7907 400.268 25.7907C401.867 25.7907 403.202 26.2523 404.274 27.1755C405.362 28.0986 406.062 29.3844 406.375 31.0329H404.447C404.216 29.9284 403.73 29.063 402.988 28.4366C402.262 27.7936 401.356 27.4722 400.268 27.4722C399.064 27.4722 398.051 27.8843 397.226 28.7086C396.699 29.2526 396.361 29.9202 396.212 30.7115C396.064 31.4863 395.99 32.8298 395.99 34.742C395.99 36.6543 396.064 38.006 396.212 38.7973C396.361 39.5721 396.699 40.2315 397.226 40.7755C398.051 41.5997 399.064 42.0118 400.268 42.0118C401.356 42.0118 402.271 41.6986 403.012 41.0722C403.771 40.4293 404.265 39.5556 404.496 38.4511H406.375Z" fill="white"/>
<path d="M126.557 0H124.496V68H126.557V0Z" fill="white"/>
</svg>
