<svg width="679" height="37" viewBox="0 0 679 37" fill="none" xmlns="http://www.w3.org/2000/svg">
<path d="M34.3906 18.5625C34.3906 24.2031 32.8828 28.6406 29.8672 31.875C26.8516 35.1094 22.7188 36.7266 17.4688 36.7266C12.2031 36.7266 8.07031 35.0938 5.07031 31.8281C2.07031 28.5469 0.570312 24.125 0.570312 18.5625C0.570312 12.9531 2.07031 8.52344 5.07031 5.27344C8.07031 2.00781 12.2031 0.375 17.4688 0.375C22.7188 0.375 26.8516 2 29.8672 5.25C32.8828 8.48438 34.3906 12.9219 34.3906 18.5625ZM25.3438 18.5391C25.3438 16.4609 25.125 14.6953 24.6875 13.2422C24.2656 11.7734 23.6953 10.5703 22.9766 9.63281C22.2266 8.67969 21.375 8 20.4219 7.59375C19.4844 7.17188 18.5078 6.96094 17.4922 6.96094C16.4141 6.96094 15.4375 7.15625 14.5625 7.54688C13.6875 7.92188 12.8438 8.60156 12.0312 9.58594C11.3125 10.4922 10.7266 11.6953 10.2734 13.1953C9.83594 14.6953 9.61719 16.4844 9.61719 18.5625C9.61719 20.7031 9.82812 22.4844 10.25 23.9062C10.6719 25.3125 11.25 26.4922 11.9844 27.4453C12.7344 28.4141 13.5859 29.1094 14.5391 29.5312C15.4922 29.9375 16.4766 30.1406 17.4922 30.1406C18.5234 30.1406 19.5234 29.9219 20.4922 29.4844C21.4609 29.0312 22.2969 28.3359 23 27.3984C23.75 26.3828 24.3281 25.2031 24.7344 23.8594C25.1406 22.5 25.3438 20.7266 25.3438 18.5391ZM35.8438 36L47.6328 1.10156H57.1953L68.9844 36H59.9609L57.7812 28.875H46.8125L44.6328 36H35.8438ZM55.8594 22.5469L52.2969 11.0391L48.7344 22.5469H55.8594ZM104.234 18.5625C104.234 24.2031 102.727 28.6406 99.7109 31.875C96.6953 35.1094 92.5625 36.7266 87.3125 36.7266C82.0469 36.7266 77.9141 35.0938 74.9141 31.8281C71.9141 28.5469 70.4141 24.125 70.4141 18.5625C70.4141 12.9531 71.9141 8.52344 74.9141 5.27344C77.9141 2.00781 82.0469 0.375 87.3125 0.375C92.5625 0.375 96.6953 2 99.7109 5.25C102.727 8.48438 104.234 12.9219 104.234 18.5625ZM95.1875 18.5391C95.1875 16.4609 94.9688 14.6953 94.5312 13.2422C94.1094 11.7734 93.5391 10.5703 92.8203 9.63281C92.0703 8.67969 91.2188 8 90.2656 7.59375C89.3281 7.17188 88.3516 6.96094 87.3359 6.96094C86.2578 6.96094 85.2812 7.15625 84.4062 7.54688C83.5312 7.92188 82.6875 8.60156 81.875 9.58594C81.1562 10.4922 80.5703 11.6953 80.1172 13.1953C79.6797 14.6953 79.4609 16.4844 79.4609 18.5625C79.4609 20.7031 79.6719 22.4844 80.0938 23.9062C80.5156 25.3125 81.0938 26.4922 81.8281 27.4453C82.5781 28.4141 83.4297 29.1094 84.3828 29.5312C85.3359 29.9375 86.3203 30.1406 87.3359 30.1406C88.3672 30.1406 89.3672 29.9219 90.3359 29.4844C91.3047 29.0312 92.1406 28.3359 92.8438 27.3984C93.5938 26.3828 94.1719 25.2031 94.5781 23.8594C94.9844 22.5 95.1875 20.7266 95.1875 18.5391ZM149.375 32.5312L136.25 22.0781V19.0547L149.375 8.625V15.5625L142.789 20.5781L149.375 25.5938V32.5312ZM136.016 32.5312L122.891 22.0781V19.0547L136.016 8.625V15.5625L129.43 20.5781L136.016 25.5938V32.5312ZM172.297 36.6797C167.062 36.6797 162.906 35.1016 159.828 31.9453C156.75 28.7734 155.211 24.3203 155.211 18.5859C155.211 13.0547 156.75 8.64844 159.828 5.36719C162.922 2.07031 167.086 0.421875 172.32 0.421875C173.711 0.421875 174.961 0.5 176.07 0.65625C177.18 0.8125 178.242 1.03125 179.258 1.3125C180.055 1.54688 180.922 1.86719 181.859 2.27344C182.797 2.67969 183.555 3.03125 184.133 3.32812V11.6484H183.242C182.82 11.2734 182.289 10.8281 181.648 10.3125C181.008 9.78125 180.281 9.26562 179.469 8.76562C178.656 8.26562 177.758 7.84375 176.773 7.5C175.805 7.14062 174.789 6.96094 173.727 6.96094C172.461 6.96094 171.297 7.16406 170.234 7.57031C169.188 7.96094 168.188 8.64844 167.234 9.63281C166.359 10.5234 165.641 11.7266 165.078 13.2422C164.531 14.7578 164.258 16.5469 164.258 18.6094C164.258 20.7812 164.547 22.6094 165.125 24.0938C165.703 25.5625 166.461 26.75 167.398 27.6562C168.305 28.5312 169.312 29.1641 170.422 29.5547C171.547 29.9453 172.664 30.1406 173.773 30.1406C174.93 30.1406 176.031 29.9531 177.078 29.5781C178.125 29.1875 179.008 28.7578 179.727 28.2891C180.508 27.8047 181.195 27.3125 181.789 26.8125C182.383 26.3125 182.898 25.8672 183.336 25.4766H184.133V33.6797C183.492 33.9766 182.75 34.3203 181.906 34.7109C181.062 35.0859 180.195 35.4062 179.305 35.6719C178.211 36 177.188 36.25 176.234 36.4219C175.281 36.5938 173.969 36.6797 172.297 36.6797ZM219.359 36H210.594V7.75781H201.781C201.719 9.11719 201.656 10.3906 201.594 11.5781C201.547 12.75 201.492 13.8672 201.43 14.9297C201.258 17.9766 200.977 20.6094 200.586 22.8281C200.195 25.0312 199.75 26.8359 199.25 28.2422C198.703 29.7422 198.148 30.9219 197.586 31.7812C197.023 32.6406 196.492 33.3203 195.992 33.8203C195.242 34.5703 194.305 35.1641 193.18 35.6016C192.055 36.0234 190.945 36.2344 189.852 36.2344C189.117 36.2344 188.312 36.2031 187.438 36.1406C186.562 36.0781 186.008 36.0312 185.773 36V28.2891H186.102C186.258 28.3047 186.406 28.3203 186.547 28.3359C186.703 28.3516 186.898 28.3594 187.133 28.3594C187.523 28.3594 188.023 28.2969 188.633 28.1719C189.242 28.0469 189.703 27.8359 190.016 27.5391C191.141 26.4766 191.906 24.8359 192.312 22.6172C192.734 20.3828 193.055 17.1641 193.273 12.9609C193.367 11.0391 193.422 9.3125 193.438 7.78125C193.469 6.25 193.531 4.02344 193.625 1.10156H219.359V36ZM222.828 36L234.617 1.10156H244.18L255.969 36H246.945L244.766 28.875H233.797L231.617 36H222.828ZM242.844 22.5469L239.281 11.0391L235.719 22.5469H242.844ZM287.352 25.3125C287.352 27.0469 287.023 28.5703 286.367 29.8828C285.711 31.1953 284.828 32.2812 283.719 33.1406C282.406 34.1719 280.961 34.9062 279.383 35.3438C277.82 35.7812 275.828 36 273.406 36H259.438V1.10156H271.766C274.328 1.10156 276.266 1.20312 277.578 1.40625C278.906 1.59375 280.148 2 281.305 2.625C282.555 3.29688 283.484 4.19531 284.094 5.32031C284.719 6.44531 285.031 7.74219 285.031 9.21094C285.031 10.9141 284.602 12.4297 283.742 13.7578C282.898 15.0859 281.727 16.0625 280.227 16.6875V16.875C282.383 17.3281 284.109 18.2578 285.406 19.6641C286.703 21.0547 287.352 22.9375 287.352 25.3125ZM276.125 10.9688C276.125 10.4062 275.977 9.82812 275.68 9.23438C275.398 8.64062 274.953 8.21094 274.344 7.94531C273.766 7.69531 273.078 7.5625 272.281 7.54688C271.5 7.51562 270.328 7.5 268.766 7.5H268.156V14.8828H269.258C270.758 14.8828 271.805 14.8672 272.398 14.8359C273.008 14.8047 273.633 14.6406 274.273 14.3438C274.977 14.0156 275.461 13.5625 275.727 12.9844C275.992 12.4062 276.125 11.7344 276.125 10.9688ZM278.328 25.1484C278.328 24.0703 278.109 23.2266 277.672 22.6172C277.234 22.0078 276.578 21.5469 275.703 21.2344C275.172 21.0312 274.438 20.9219 273.5 20.9062C272.578 20.875 271.336 20.8594 269.773 20.8594H268.156V29.6016H268.625C270.906 29.6016 272.484 29.5859 273.359 29.5547C274.234 29.5234 275.125 29.3125 276.031 28.9219C276.828 28.5781 277.406 28.0781 277.766 27.4219C278.141 26.75 278.328 25.9922 278.328 25.1484ZM321.852 36H313.086V20.5312H301.156V36H292.391V1.10156H301.156V13.875H313.086V1.10156H321.852V36ZM329.094 36V1.10156H352.695V7.75781H337.812V13.875H351.523V20.5312H337.812V29.3438H352.695V36H329.094ZM395.773 18.2812C395.773 22.4844 394.352 25.8125 391.508 28.2656C388.664 30.7031 384.969 32.1172 380.422 32.5078V36.2812H371.703V32.5078C367.156 32.1172 363.461 30.7188 360.617 28.3125C357.773 25.8906 356.352 22.5469 356.352 18.2812C356.352 14.0312 357.734 10.7344 360.5 8.39062C363.266 6.04688 367 4.67188 371.703 4.26562V0.75H380.422V4.26562C384.984 4.59375 388.68 5.94531 391.508 8.32031C394.352 10.6797 395.773 14 395.773 18.2812ZM386.773 18.1406C386.773 15.9375 386.211 14.1406 385.086 12.75C383.961 11.3438 382.406 10.4609 380.422 10.1016V26.6953C382.719 26.1953 384.352 25.25 385.32 23.8594C386.289 22.4531 386.773 20.5469 386.773 18.1406ZM371.703 26.6953V10.1016C369.641 10.4766 368.062 11.3672 366.969 12.7734C365.891 14.1641 365.352 15.9531 365.352 18.1406C365.352 20.5156 365.859 22.4219 366.875 23.8594C367.891 25.2812 369.5 26.2266 371.703 26.6953ZM407.422 36V7.75781H397.109V1.10156H426.5V7.75781H416.188V36H407.422ZM457.953 24.8438C457.953 26.5469 457.625 28.1172 456.969 29.5547C456.328 30.9766 455.445 32.1406 454.32 33.0469C452.977 34.125 451.523 34.8906 449.961 35.3438C448.414 35.7812 446.523 36 444.289 36H430.109V1.10156H438.852V14.2031H444.43C446.477 14.2031 448.328 14.3516 449.984 14.6484C451.641 14.9297 453.148 15.6016 454.508 16.6641C455.711 17.6016 456.586 18.7812 457.133 20.2031C457.68 21.6094 457.953 23.1562 457.953 24.8438ZM448.906 25.1016C448.906 24.5234 448.844 23.9766 448.719 23.4609C448.594 22.9453 448.32 22.4688 447.898 22.0312C447.477 21.6094 446.898 21.2734 446.164 21.0234C445.43 20.7734 444.414 20.6484 443.117 20.6484H438.852V29.5312H443.117C444.898 29.5312 446.305 29.1562 447.336 28.4062C448.383 27.6406 448.906 26.5391 448.906 25.1016ZM491.164 23.8594H475.625V17.3438H491.164V23.8594ZM538.602 36H529.883V23.2031H526.578L517.789 36H507.383L517.789 21.5391C515.648 20.6172 513.992 19.3203 512.82 17.6484C511.664 15.9766 511.086 13.8203 511.086 11.1797C511.086 9.39844 511.477 7.84375 512.258 6.51562C513.055 5.1875 514.062 4.10156 515.281 3.25781C516.344 2.52344 517.633 1.98438 519.148 1.64062C520.68 1.28125 522.43 1.10156 524.398 1.10156H538.602V36ZM529.883 16.9219V7.52344H527.07C525.711 7.52344 524.664 7.57031 523.93 7.66406C523.195 7.74219 522.484 8.03906 521.797 8.55469C521.266 8.94531 520.859 9.46094 520.578 10.1016C520.297 10.7266 520.156 11.4219 520.156 12.1875C520.156 12.9844 520.305 13.7031 520.602 14.3438C520.898 14.9688 521.312 15.4844 521.844 15.8906C522.438 16.3594 523.133 16.6484 523.93 16.7578C524.742 16.8672 525.805 16.9219 527.117 16.9219H529.883ZM575.305 36H566.539V20.5312H554.609V36H545.844V1.10156H554.609V13.875H566.539V1.10156H575.305V36ZM614.328 18.5625C614.328 24.2031 612.82 28.6406 609.805 31.875C606.789 35.1094 602.656 36.7266 597.406 36.7266C592.141 36.7266 588.008 35.0938 585.008 31.8281C582.008 28.5469 580.508 24.125 580.508 18.5625C580.508 12.9531 582.008 8.52344 585.008 5.27344C588.008 2.00781 592.141 0.375 597.406 0.375C602.656 0.375 606.789 2 609.805 5.25C612.82 8.48438 614.328 12.9219 614.328 18.5625ZM605.281 18.5391C605.281 16.4609 605.062 14.6953 604.625 13.2422C604.203 11.7734 603.633 10.5703 602.914 9.63281C602.164 8.67969 601.312 8 600.359 7.59375C599.422 7.17188 598.445 6.96094 597.43 6.96094C596.352 6.96094 595.375 7.15625 594.5 7.54688C593.625 7.92188 592.781 8.60156 591.969 9.58594C591.25 10.4922 590.664 11.6953 590.211 13.1953C589.773 14.6953 589.555 16.4844 589.555 18.5625C589.555 20.7031 589.766 22.4844 590.188 23.9062C590.609 25.3125 591.188 26.4922 591.922 27.4453C592.672 28.4141 593.523 29.1094 594.477 29.5312C595.43 29.9375 596.414 30.1406 597.43 30.1406C598.461 30.1406 599.461 29.9219 600.43 29.4844C601.398 29.0312 602.234 28.3359 602.938 27.3984C603.688 26.3828 604.266 25.2031 604.672 23.8594C605.078 22.5 605.281 20.7266 605.281 18.5391ZM634.578 36.6797C629.344 36.6797 625.188 35.1016 622.109 31.9453C619.031 28.7734 617.492 24.3203 617.492 18.5859C617.492 13.0547 619.031 8.64844 622.109 5.36719C625.203 2.07031 629.367 0.421875 634.602 0.421875C635.992 0.421875 637.242 0.5 638.352 0.65625C639.461 0.8125 640.523 1.03125 641.539 1.3125C642.336 1.54688 643.203 1.86719 644.141 2.27344C645.078 2.67969 645.836 3.03125 646.414 3.32812V11.6484H645.523C645.102 11.2734 644.57 10.8281 643.93 10.3125C643.289 9.78125 642.562 9.26562 641.75 8.76562C640.938 8.26562 640.039 7.84375 639.055 7.5C638.086 7.14062 637.07 6.96094 636.008 6.96094C634.742 6.96094 633.578 7.16406 632.516 7.57031C631.469 7.96094 630.469 8.64844 629.516 9.63281C628.641 10.5234 627.922 11.7266 627.359 13.2422C626.812 14.7578 626.539 16.5469 626.539 18.6094C626.539 20.7812 626.828 22.6094 627.406 24.0938C627.984 25.5625 628.742 26.75 629.68 27.6562C630.586 28.5312 631.594 29.1641 632.703 29.5547C633.828 29.9453 634.945 30.1406 636.055 30.1406C637.211 30.1406 638.312 29.9531 639.359 29.5781C640.406 29.1875 641.289 28.7578 642.008 28.2891C642.789 27.8047 643.477 27.3125 644.07 26.8125C644.664 26.3125 645.18 25.8672 645.617 25.4766H646.414V33.6797C645.773 33.9766 645.031 34.3203 644.188 34.7109C643.344 35.0859 642.477 35.4062 641.586 35.6719C640.492 36 639.469 36.25 638.516 36.4219C637.562 36.5938 636.25 36.6797 634.578 36.6797ZM678.734 22.0781L665.609 32.5312V25.5938L672.195 20.5781L665.609 15.5625V8.625L678.734 19.0547V22.0781ZM665.375 22.0781L652.25 32.5312V25.5938L658.836 20.5781L652.25 15.5625V8.625L665.375 19.0547V22.0781Z" fill="white"/>
</svg>
