<?xml version="1.0" encoding="UTF-8"?>
<!DOCTYPE svg PUBLIC "-//W3C//DTD SVG 1.1//EN" "http://www.w3.org/Graphics/SVG/1.1/DTD/svg11.dtd">
<!-- Creator: CorelDRAW 2017 -->
<svg xmlns="http://www.w3.org/2000/svg" xml:space="preserve" width="134.424mm" height="32.3315mm" version="1.1" style="shape-rendering:geometricPrecision; text-rendering:geometricPrecision; image-rendering:optimizeQuality; fill-rule:evenodd; clip-rule:evenodd"
viewBox="0 0 12838.2 3087.82"
 xmlns:xlink="http://www.w3.org/1999/xlink">
 <defs>
  <style type="text/css">
   <![CDATA[
    .fil3 {fill:#FEFEFE}
    .fil1 {fill:#2B2A29}
    .fil2 {fill:#E31E24}
    .fil0 {fill:#0085CA}
   ]]>
  </style>
 </defs>
 <g id="Layer_x0020_1">
  <metadata id="CorelCorpID_0Corel-Layer"/>
  <path class="fil0" d="M1362.55 454.91c15.2,0 30.28,0.46 45.28,1.25l-309.96 688.06c-41.28,91.67 -110.47,208.33 -69.81,351.59 73.37,185.44 254.65,317.31 465.7,317.31 275.65,0 500.49,-224.91 500.49,-500.57 0,-8.62 -9.15,-25.8 -0.65,-25.66l205.35 2.49c0,0.66 0.04,1.32 0.04,1.98 0,460.7 -375.75,836.44 -836.43,836.44 -460.68,0 -836.4,-375.75 -836.4,-836.44 0,-460.7 375.73,-836.44 836.4,-836.44z"/>
  <path class="fil1" d="M1362.55 210.45c595.32,0 1080.9,485.58 1080.9,1080.91 0,595.41 -485.58,1080.91 -1080.9,1080.91 -595.33,0 -1080.89,-485.5 -1080.89,-1080.91 0,-595.33 485.56,-1080.91 1080.89,-1080.91zm0 46.59c569.7,0 1034.31,464.58 1034.31,1034.32 0,569.67 -464.61,1034.39 -1034.31,1034.39 -569.69,0 -1034.32,-464.72 -1034.32,-1034.39 0,-569.74 464.63,-1034.32 1034.32,-1034.32z"/>
  <path class="fil1" d="M1501.28 467.14l369.34 896.99c0,197.15 -160.81,357.97 -357.95,357.97 -197.13,0 -357.92,-160.82 -357.92,-357.97l346.54 -896.99z"/>
  <path class="fil2" d="M1648.86 0c-330.03,96.6 -238.2,312.9 -145.58,452.61 307.67,-172.15 115.39,-220.44 145.58,-452.61z"/>
  <path class="fil2" d="M3936.08 1723.29l-12.96 438.4 -323.89 0c-480.48,0 -872.38,-391.93 -872.38,-872.44 0,-480.58 391.9,-872.44 872.38,-872.44l2629.88 0 0 438.39 -2629.88 0c-239.01,0 -433.98,194.98 -433.98,434.05 0,239.07 194.97,434.04 433.98,434.04l336.85 0z"/>
  <polygon class="fil0" points="5799.64,985.62 6229.38,985.62 6229.38,1366.04 6516.79,1366.04 6516.79,418.98 6946.51,418.98 6946.51,2148.92 6516.79,2148.92 6516.79,1723.36 6229.38,1723.36 6229.38,2148.92 5799.64,2148.92 "/>
  <path class="fil0" d="M12140.53 2230.78c-187.81,126.15 -417.14,200.58 -664.93,200.58 -247.83,0 -477.15,-74.43 -664.99,-200.58l-8788.35 0c-190.4,126.15 -412.97,200.58 -664.45,200.58 -251.46,0 -474.08,-74.43 -664.46,-200.58l-693.36 0 0 857.04 12838.2 0 0 -857.04 -697.66 0z"/>
  <path class="fil0" d="M11474.75 206.89c-598.76,0 -1084.16,485.38 -1084.16,1084.13 0,598.83 485.4,1084.2 1084.16,1084.2 598.76,0 1084.17,-485.38 1084.17,-1084.2 0,-598.75 -485.41,-1084.13 -1084.17,-1084.13zm-8.98 1746.85l0 -812.56c0,0 -151.81,0 -191.76,0l0 -290.93 319.71 0 0 63.5c-24.15,10.33 -41.13,34.29 -41.13,62.25l0 977.73 -86.82 0 664.93 0 -442.87 0 0 -977.73c0,-27.51 -16.42,-51.07 -39.98,-61.66l0 -118.24 -427.9 0 0 399.17c0,0 151.75,0 191.66,0 0,46.98 0,672.85 0,758.46l-629.39 0 373.11 -626.26c-30.9,0 -62.02,-0.07 -91.67,-0.07 -199.32,0 -360.94,-161.61 -360.94,-360.94 0,-195.77 155.96,-354.69 350.28,-360.41l-0.33 -0.2 5.47 0c1.87,-0.07 3.68,-0.33 5.52,-0.33 1.84,0 3.62,0.27 5.53,0.33l1061.5 0 0 1347.88 -664.93 0z"/>
  <path class="fil3" d="M2603.49 2866.39l-84.24 0 0 -160.04 -55.22 0 -104.32 160.04 -104.63 0 115.51 -160.04c-27.94,-6.31 -52.1,-20.49 -72.45,-42.51 -20.36,-22.03 -30.53,-49.54 -30.53,-82.54 0,-21.76 5.32,-42.17 15.94,-61.27 10.63,-19.1 25.74,-34.42 45.31,-45.93 19.58,-11.52 42.12,-17.3 67.65,-17.3l206.98 0 0 409.57zm-84.24 -229.53l0 -109.5 -106.54 0c-13.55,0 -24.82,2.63 -33.81,7.87 -9,5.25 -15.58,11.81 -19.75,19.71 -4.18,7.9 -6.26,15.83 -6.26,23.82 0,17.74 5.63,31.86 16.89,42.35 11.27,10.5 27.66,15.75 49.18,15.75l100.28 0z"/>
  <path class="fil3" d="M3005.08 2587.66c0,16.38 -3.69,34.58 -11.06,54.58 -7.36,20.01 -20.83,37.61 -40.38,52.84 -19.58,15.23 -46.14,22.85 -79.68,22.85l-98.41 0 0 148.45 -85.29 0 0 -409.57 187.47 0c26.12,0 48.79,5.32 67.99,15.91 19.2,10.59 33.89,25.78 44.08,45.56 10.18,19.77 15.28,42.88 15.28,69.37zm-85.29 -4.03c0,-19.81 -5.97,-34.14 -17.9,-42.99 -11.93,-8.85 -31.26,-13.28 -58,-13.28l-68.34 0 0 120.02 79.84 0c27.58,0 45.22,-6.43 52.88,-19.31 7.67,-12.86 11.52,-27.69 11.52,-44.45z"/>
  <path class="fil3" d="M3446.82 2661.14c0,44.8 -7.11,81.85 -21.32,111.17 -14.22,29.31 -32.03,51.49 -53.44,66.49 -21.41,15 -42.7,25.12 -63.89,30.32 -21.19,5.18 -40.6,7.79 -58.24,7.79 -17.56,0 -36.98,-2.63 -58.25,-7.86 -21.27,-5.25 -42.6,-15.4 -64.03,-30.47 -21.42,-15.05 -39.2,-37.2 -53.37,-66.41 -14.17,-29.21 -21.24,-66.23 -21.24,-111.03 0,-44.88 7.07,-81.92 21.24,-111.14 14.16,-29.22 31.88,-51.36 53.17,-66.43 21.27,-15.05 42.49,-25.2 63.68,-30.45 21.17,-5.25 40.77,-7.88 58.79,-7.88 18.2,0 37.83,2.63 58.87,7.88 21.04,5.24 42.19,15.35 63.46,30.32 21.27,14.97 39.02,37.09 53.24,66.4 14.21,29.32 21.32,66.41 21.32,111.29zm-85.29 0c0,-27.17 -3.44,-50.17 -10.29,-68.97 -6.84,-18.79 -15.81,-33.63 -26.89,-44.49 -11.09,-10.86 -23.06,-18.53 -35.93,-23.04 -12.86,-4.51 -25.71,-6.76 -38.56,-6.76 -12.77,0 -25.62,2.29 -38.52,6.83 -12.91,4.55 -24.89,12.22 -35.93,23.04 -11.04,10.82 -19.99,25.63 -26.84,44.42 -6.84,18.8 -10.27,41.8 -10.27,68.97 0,27.11 3.43,50.03 10.27,68.78 6.85,18.76 15.83,33.56 26.91,44.42 11.09,10.86 23.05,18.58 35.92,23.11 12.86,4.55 25.68,6.81 38.45,6.81 12.85,0 25.67,-2.23 38.49,-6.74 12.82,-4.51 24.79,-12.21 35.93,-23.11 11.13,-10.91 20.12,-25.73 26.96,-44.49 6.85,-18.76 10.29,-41.67 10.29,-68.78z"/>
  <path class="fil3" d="M3861.94 2725.34c-5.86,30.33 -16.32,56.88 -31.39,79.64 -15.07,22.75 -34.93,40.44 -59.56,53.03 -24.62,12.59 -53.58,18.9 -86.87,18.9 -36.65,0 -69.1,-8.2 -97.33,-24.59 -28.24,-16.4 -50.25,-40.85 -66.01,-73.32 -15.78,-32.48 -23.67,-71.56 -23.67,-117.3 0,-46.26 8.18,-85.72 24.56,-118.33 16.37,-32.61 38.81,-57.12 67.34,-73.53 28.53,-16.4 60.59,-24.6 96.22,-24.6 29.02,0 54.65,4.47 76.86,13.4 22.2,8.94 40.42,20.64 54.62,35.11 14.17,14.48 24.97,30.11 32.34,46.9 7.37,16.82 11.66,33.45 12.88,49.91l-85.53 0c-5.38,-19.72 -14.14,-36.42 -26.28,-50.07 -12.14,-13.66 -33.56,-20.5 -64.25,-20.5 -26.32,0 -49.8,10.89 -70.43,32.65 -20.63,21.77 -30.94,58.49 -30.94,110.17 0,25.66 3.53,49.02 10.62,70.08 7.1,21.08 18.21,37.89 33.38,50.44 15.18,12.56 34.29,18.82 57.37,18.82 15.86,0 29.97,-2.91 42.35,-8.76 12.37,-5.82 22.68,-14.55 30.94,-26.19 8.24,-11.61 13.98,-25.58 17.24,-41.88l85.53 0z"/>
  <path class="fil3" d="M4223.89 2866.39l-85.28 0 0 -336.92 -116.87 0 0 207.3c0,45.98 -11.14,80.84 -33.42,104.56 -22.27,23.72 -55.7,35.59 -100.25,35.59l0 -74.72c20.53,0 34.59,-5.84 42.21,-17.53 7.61,-11.68 11.43,-27.69 11.43,-48l0 -279.84 282.17 0 0 409.57z"/>
  <path class="fil3" d="M4664.62 2866.39l-92.78 0 -26.28 -84.23 -150.93 0 -28.51 84.23 -90 0 145.77 -409.57 98.63 0 144.11 409.57zm-142.99 -154.78l-50.64 -162.5 -1.12 0 -52.43 162.5 104.19 0z"/>
  <path class="fil3" d="M5057.69 2744.92c0,16.15 -3.1,31.55 -9.33,46.18 -6.21,14.64 -14.89,27.37 -26.01,38.23 -9.2,8.83 -18.35,15.78 -27.42,20.84 -9.08,5.07 -21.65,9.03 -37.71,11.91 -16.06,2.88 -37.48,4.32 -64.28,4.32l-173.23 0 0 -409.57 199.24 0c31.03,0 55.97,5.46 74.82,16.36 18.85,10.91 32.11,24.3 39.78,40.15 7.67,15.87 11.5,32.03 11.5,48.45 0,25.54 -4.86,44.09 -14.57,55.69 -9.7,11.59 -21.67,20.97 -35.84,28.12 42.03,15.79 63.05,48.91 63.05,99.33zm-94.76 -173.71c0,-15.96 -5.26,-27.25 -15.76,-33.89 -10.52,-6.63 -26.17,-9.95 -47,-9.95l-98.33 0 0 89.49 100.57 0c18.03,0 32.62,-3.74 43.78,-11.27 11.15,-7.52 16.74,-18.98 16.74,-34.38l9.47 164.75c0,-16.71 -5.95,-29.17 -17.83,-37.34 -11.87,-8.17 -26.5,-12.26 -43.84,-12.26l-108.89 0 0 109.51 104.99 0c43.71,0 65.57,-19.96 65.57,-59.9l-9.47 -164.75z"/>
  <polygon class="fil3" points="5460.23,2866.39 5374.96,2866.39 5374.96,2682.13 5214.92,2682.13 5214.92,2866.39 5129.63,2866.39 5129.63,2456.82 5214.92,2456.82 5214.92,2611.59 5374.96,2611.59 5374.96,2456.82 5460.23,2456.82 "/>
  <polygon class="fil3" points="5854.98,2866.39 5543.75,2866.39 5543.75,2456.82 5845.22,2456.82 5845.22,2529.47 5627.99,2529.47 5627.99,2614.76 5827.55,2614.76 5827.55,2687.41 5627.99,2687.41 5627.99,2793.74 5854.98,2793.74 "/>
  <path class="fil3" d="M6362.98 2661.67c0,29.54 -5.79,54.77 -17.35,75.7 -11.58,20.94 -26.68,37.64 -45.34,50.07 -18.66,12.43 -38.55,21.41 -59.7,26.87 -21.16,5.48 -41.79,8.21 -61.86,8.21l0 43.88 -85.29 0 0 -43.88c-20.08,0 -40.88,-2.73 -62.4,-8.21 -21.52,-5.45 -41.81,-14.43 -60.87,-26.87 -19.06,-12.43 -34.53,-29.15 -46.38,-50.14 -11.84,-20.97 -17.76,-46.18 -17.76,-75.63 0,-29.61 5.92,-54.9 17.76,-75.89 11.84,-20.97 27.32,-37.69 46.44,-50.12 19.1,-12.44 39.33,-21.39 60.72,-26.82 21.38,-5.43 42.21,-8.15 62.48,-8.15l0 -43.88 85.29 0 0 43.88c27.67,0 55.63,5.12 83.86,15.32 28.23,10.22 52.02,27.44 71.37,51.67 19.35,24.24 29.01,55.56 29.01,93.99zm-269.53 94.5l0 -189.36c-27.41,0 -51.46,7.14 -72.15,21.38 -20.7,14.27 -31.03,38.72 -31.03,73.36 0,34.47 10.36,58.85 31.11,73.17 20.73,14.31 44.77,21.45 72.08,21.45l187.41 -94.62c0,-23.77 -5.18,-42.74 -15.53,-56.9 -10.34,-14.16 -23.21,-24.02 -38.59,-29.54 -15.38,-5.53 -31.38,-8.3 -48,-8.3l0 189.36c16.62,0 32.62,-2.77 48,-8.29 15.39,-5.53 28.25,-15.36 38.59,-29.46 10.35,-14.13 15.53,-33.07 15.53,-56.86l-187.41 94.62z"/>
  <polygon class="fil3" points="6730.62,2529.47 6606.54,2529.47 6606.54,2866.39 6521.26,2866.39 6521.26,2529.47 6397.58,2529.47 6397.58,2456.82 6730.62,2456.82 "/>
  <polygon class="fil3" points="7092.28,2866.39 6781.06,2866.39 6781.06,2456.82 7082.55,2456.82 7082.55,2529.47 6865.29,2529.47 6865.29,2614.76 7064.84,2614.76 7064.84,2687.41 6865.29,2687.41 6865.29,2793.74 7092.28,2793.74 "/>
  <path class="fil3" d="M7538.17 2661.14c0,44.8 -7.11,81.85 -21.32,111.17 -14.21,29.31 -32.05,51.49 -53.44,66.49 -21.42,15 -42.71,25.12 -63.89,30.32 -21.19,5.18 -40.61,7.79 -58.24,7.79 -17.57,0 -36.99,-2.63 -58.28,-7.86 -21.25,-5.25 -42.6,-15.4 -64.03,-30.47 -21.41,-15.05 -39.19,-37.2 -53.37,-66.41 -14.14,-29.21 -21.22,-66.23 -21.22,-111.03 0,-44.88 7.08,-81.92 21.22,-111.14 14.18,-29.22 31.89,-51.36 53.18,-66.43 21.29,-15.05 42.51,-25.2 63.69,-30.45 21.16,-5.25 40.77,-7.88 58.8,-7.88 18.19,0 37.8,2.63 58.86,7.88 21.02,5.24 42.18,15.35 63.47,30.32 21.25,14.97 39.02,37.09 53.23,66.4 14.21,29.32 21.32,66.41 21.32,111.29zm-85.28 0c0,-27.17 -3.46,-50.17 -10.3,-68.97 -6.84,-18.79 -15.79,-33.63 -26.88,-44.49 -11.09,-10.86 -23.06,-18.53 -35.93,-23.04 -12.87,-4.51 -25.74,-6.76 -38.56,-6.76 -12.77,0 -25.63,2.29 -38.53,6.83 -12.9,4.55 -24.88,12.22 -35.93,23.04 -11.03,10.82 -19.98,25.63 -26.82,44.42 -6.85,18.8 -10.27,41.8 -10.27,68.97 0,27.11 3.42,50.03 10.27,68.78 6.84,18.76 15.83,33.56 26.91,44.42 11.09,10.86 23.04,18.58 35.89,23.11 12.87,4.55 25.7,6.81 38.47,6.81 12.83,0 25.66,-2.23 38.5,-6.74 12.8,-4.51 24.77,-12.21 35.93,-23.11 11.12,-10.91 20.1,-25.73 26.94,-44.49 6.85,-18.76 10.3,-41.67 10.3,-68.78z"/>
  <path class="fil3" d="M7921.16 2587.66c0,16.38 -3.69,34.58 -11.05,54.58 -7.37,20.01 -20.83,37.61 -40.37,52.84 -19.58,15.23 -46.14,22.85 -79.7,22.85l-98.41 0 0 148.45 -85.28 0 0 -409.57 187.47 0c26.13,0 48.8,5.32 67.98,15.91 19.22,10.59 33.89,25.78 44.09,45.56 10.16,19.77 15.26,42.88 15.26,69.37zm-85.28 -4.03c0,-19.81 -5.96,-34.14 -17.91,-42.99 -11.91,-8.85 -31.26,-13.28 -58,-13.28l-68.34 0 0 120.02 79.86 0c27.56,0 45.2,-6.43 52.87,-19.31 7.66,-12.86 11.52,-27.69 11.52,-44.45z"/>
  <polygon class="fil3" points="8284.31,2529.47 8072.32,2529.47 8072.32,2866.39 7987.03,2866.39 7987.03,2456.82 8284.31,2456.82 "/>
  <path class="fil3" d="M8682.72 2725.34c-5.85,30.33 -16.31,56.88 -31.38,79.64 -15.07,22.75 -34.95,40.44 -59.56,53.03 -24.64,12.59 -53.6,18.9 -86.9,18.9 -36.65,0 -69.09,-8.2 -97.32,-24.59 -28.23,-16.4 -50.25,-40.85 -66,-73.32 -15.8,-32.48 -23.66,-71.56 -23.66,-117.3 0,-46.26 8.16,-85.72 24.54,-118.33 16.39,-32.61 38.82,-57.12 67.35,-73.53 28.53,-16.4 60.58,-24.6 96.21,-24.6 29.01,0 54.65,4.47 76.86,13.4 22.2,8.94 40.44,20.64 54.61,35.11 14.18,14.48 24.97,30.11 32.35,46.9 7.37,16.82 11.68,33.45 12.89,49.91l-85.54 0c-5.37,-19.72 -14.14,-36.42 -26.29,-50.07 -12.14,-13.66 -33.56,-20.5 -64.22,-20.5 -26.33,0 -49.82,10.89 -70.44,32.65 -20.64,21.77 -30.93,58.49 -30.93,110.17 0,25.66 3.52,49.02 10.63,70.08 7.08,21.08 18.19,37.89 33.36,50.44 15.17,12.56 34.29,18.82 57.39,18.82 15.85,0 29.97,-2.91 42.34,-8.76 12.38,-5.82 22.67,-14.55 30.93,-26.19 8.26,-11.61 13.98,-25.58 17.24,-41.88l85.54 0z"/>
  <polygon class="fil3" points="9077.35,2866.39 8997.33,2866.39 8997.33,2574.2 8996.21,2574.2 8829.34,2866.39 8743.59,2866.39 8743.59,2456.82 8823.61,2456.82 8823.61,2741.97 8824.72,2741.97 8987.2,2456.82 9077.35,2456.82 "/>
  <polygon class="fil3" points="9488.34,2866.39 9403.05,2866.39 9403.05,2682.13 9243.02,2682.13 9243.02,2866.39 9157.73,2866.39 9157.73,2456.82 9243.02,2456.82 9243.02,2611.59 9403.05,2611.59 9403.05,2456.82 9488.34,2456.82 "/>
  <polygon class="fil3" points="9870.17,2529.47 9746.06,2529.47 9746.06,2866.39 9660.77,2866.39 9660.77,2529.47 9537.12,2529.47 9537.12,2456.82 9870.17,2456.82 "/>
  <polygon class="fil3" points="10231.83,2866.39 9920.61,2866.39 9920.61,2456.82 10222.1,2456.82 10222.1,2529.47 10004.84,2529.47 10004.84,2614.76 10204.39,2614.76 10204.39,2687.41 10004.84,2687.41 10004.84,2793.74 10231.83,2793.74 "/>
  <path class="fil3" d="M10616.72 2746.45c0,22.63 -5.4,43.84 -16.19,63.64 -10.79,19.81 -28.36,35.89 -52.71,48.27 -24.34,12.37 -55.6,18.57 -93.77,18.57 -35.08,0 -64.36,-4.42 -87.92,-13.24 -23.55,-8.83 -41.62,-20.24 -54.22,-34.2 -12.57,-13.95 -21.26,-28.57 -26.06,-43.83 -4.8,-15.27 -7.17,-30.28 -7.17,-45.1l82.33 0c0,9.24 2.69,18.9 8.09,28.98 5.4,10.07 14.87,18.73 28.5,25.98 13.55,7.25 31.92,10.87 54.97,10.87 21.69,0 40.25,-5.54 55.71,-16.67 15.4,-11.12 23.16,-25.47 23.16,-43.06 0,-13.15 -3.74,-24.22 -11.18,-33.21 -7.44,-8.98 -17.31,-15.74 -29.55,-20.28 -12.23,-4.55 -25.53,-6.82 -39.94,-6.82l-65.21 0 0 -69.49 64.03 0c20.99,0 37.93,-4.39 50.87,-13.18 12.93,-8.78 19.42,-21.2 19.42,-37.29 0,-10.27 -3.19,-19.25 -9.51,-26.92 -6.31,-7.66 -15.07,-13.51 -26.23,-17.58 -11.15,-4.06 -23.62,-6.1 -37.37,-6.1 -21.78,0 -38.54,3.6 -50.27,10.77 -11.79,7.17 -19.62,15.39 -23.43,24.63 -3.89,9.24 -5.8,18.21 -5.8,26.93l-82.32 0c0,-19.57 4.99,-39.5 15,-59.81 10,-20.29 27.01,-37.55 51.03,-51.77 24.02,-14.19 55.37,-21.3 94.1,-21.3 39.45,0 71.1,6.48 94.92,19.43 23.82,12.95 40.47,28.66 49.88,47.15 9.47,18.49 14.21,36.76 14.21,54.83 0,23.95 -7.54,42.39 -22.54,55.33 -15.03,12.94 -33.29,21.93 -54.85,26.96 13.27,1.48 26.82,6.33 40.68,14.55 13.88,8.21 25.56,19.44 35.07,33.72 9.51,14.28 14.28,30.7 14.28,49.24z"/>
  <path class="fil1" d="M9466.59 1606.04l0 417.71 18.14 0c10.74,0 20.15,-4.04 28.2,-12.09 8.05,-8.05 12.09,-17.46 12.09,-28.21l0 -331.07c0,-12.09 -4.71,-22.84 -14.11,-32.24 -9.4,-9.4 -20.16,-14.1 -32.23,-14.1l-12.09 0zm64.47 -124.91c51.05,0 91.01,14.11 119.88,42.3 28.87,28.2 43.31,63.83 43.31,106.78l0 361.3c0,45.66 -13.44,83.29 -40.28,112.83 -26.86,29.55 -67.85,44.32 -122.91,44.32l-20.14 0 -213.56 0 0 -1150.42 20.15 0 149.08 0 0 482.88 64.47 0zm-1485.7 514.41c0,9.4 2.69,16.46 8.06,21.15 5.37,4.7 11.41,8.39 18.13,11.09 9.4,-1.35 17.12,-4.71 23.17,-10.08 6.04,-5.38 9.06,-12.76 9.06,-22.17l0 -840.15c0,-9.41 -3.03,-16.79 -9.06,-22.16 -6.05,-5.37 -13.09,-8.73 -21.15,-10.08 -6.71,1.35 -13.09,4.7 -19.14,10.08 -6.05,5.37 -9.06,12.76 -9.06,22.16l0 840.15zm-169.23 -840.15c0,-9.41 -3.02,-16.79 -9.06,-22.16 -6.05,-5.38 -13.09,-8.73 -21.15,-10.08 -6.71,1.35 -13.1,4.71 -19.14,10.08 -6.04,5.37 -9.06,12.76 -9.06,22.16l0 840.15c0,9.4 2.69,16.46 8.06,21.15 5.37,4.7 11.41,8.39 18.13,11.09 9.4,-1.35 17.12,-4.71 23.17,-10.08 6.05,-5.38 9.06,-12.76 9.06,-22.17l0 -840.15zm0 983.2c-17.46,6.72 -33.91,12.1 -49.36,16.12 -15.44,4.03 -29.96,4.72 -43.32,6.05l-20.14 2.02c-34.76,3.46 -62.79,-13.43 -83.61,-36.26 -20.81,-22.84 -31.22,-51.05 -31.22,-84.63l0 -948.94c0,-33.58 7.73,-59.11 23.17,-76.57 15.44,-17.46 39.96,-26.19 73.54,-26.19l20.14 0c14.77,0 31.56,1.68 50.37,5.03 18.8,3.36 38.95,8.39 60.44,15.11l0 -29.02 20.15 0 149.08 0 0 29.02c21.49,-6.71 41.31,-11.75 59.43,-15.11 18.13,-3.35 33.91,-5.03 47.34,-5.03l20.14 0c34.93,0 60.45,8.73 76.56,26.19 16.12,17.46 24.18,42.99 24.18,76.57l0 948.94c0,33.58 -10.41,61.79 -31.23,84.63 -20.81,22.84 -48.86,30.79 -83.61,34.25l-20.14 2.02c-13.43,1.33 -27.88,-4.03 -43.32,-8.06 -15.44,-4.02 -31.9,-9.4 -49.36,-16.12l0 30.57 -20.15 0 -149.08 0 0 -30.57zm-552.16 -991.25c0,-9.41 -3.03,-16.46 -9.06,-21.15 -6.05,-4.7 -13.1,-7.73 -21.15,-9.07 -6.72,1.35 -13.1,4.37 -19.14,9.07 -6.04,4.7 -9.06,11.76 -9.06,21.15l0 334.44 58.42 0 0 -334.44zm-227.66 -40.3c0,-40.29 19.48,-70.51 58.42,-90.66 38.95,-20.14 81.93,-30.22 128.94,-30.22l20.14 0c1.35,0 3.03,0 5.04,0 2.02,0 4.36,-0.08 7.05,0 44.32,1.26 84.95,12.09 121.88,32.23 36.94,20.14 55.41,49.7 55.41,88.65l0 499.66 -227.66 0 0 394.88c0,9.4 2.68,16.46 8.06,21.15 5.36,4.7 11.4,8.39 18.13,11.08 9.4,-1.34 17.12,-4.7 23.17,-10.07 6.05,-5.38 9.06,-12.76 9.06,-22.17l0 -265.94 20.15 0 149.08 0 0 308.25c0,36.26 -18.47,63.81 -55.41,82.61 -36.93,18.8 -77.56,28.96 -121.88,30.22 -2.68,0.08 -5.03,0 -7.05,0 -2.02,0 -3.71,-0.12 -5.04,0l-20.14 2.02c-46.79,4.68 -89.98,-11.41 -128.94,-30.22 -38.95,-18.8 -58.42,-47.02 -58.42,-84.63l0 -936.86zm1601.29 1039.57l0 -991.22c0,-10.74 -3.33,-19.48 -9.99,-26.19 -6.65,-6.71 -14.42,-10.74 -23.29,-12.09 -7.4,1.35 -14.43,5.38 -21.08,12.09 -6.65,6.7 -9.98,15.45 -9.98,26.19l0 991.22 -188.6 0 0 -1148.36 22.2 0 166.41 0 0 22.16c28.1,-9.4 53.25,-16.46 75.43,-21.15 22.19,-4.7 41.42,-7.05 57.69,-7.05l22.2 0c31.06,0 54.36,8.06 69.89,24.17 3.41,3.53 6.44,7.54 9.1,11.98l19.95 -7.95c28.1,-9.4 53.24,-16.46 75.43,-21.15 22.19,-4.7 41.42,-7.05 57.69,-7.05l22.2 0c31.06,0 54.36,8.06 69.89,24.17 15.52,16.11 23.29,41.66 23.29,76.57l0 1053.67 -184.15 0 0 -991.22c0,-10.74 -3.33,-19.48 -9.99,-26.19 -6.65,-6.71 -14.42,-10.74 -23.29,-12.09 -7.4,1.35 -14.43,5.38 -21.08,12.09 -6.65,6.7 -9.98,15.45 -9.98,26.19l0 991.22 -189.91 0z"/>
  <path class="fil1" d="M4103.65 2021.3c1.35,0 2.35,0 3.02,0 0.67,0 1.67,0 3,0 1.35,1.34 2.68,2.01 4.02,2.01 10.7,-2.67 18.38,-8.68 23.05,-18.05 4.69,-9.36 7.03,-26.74 7.03,-52.15l0 -952.69 20.05 0 375.05 0 0 1145.23 -20.06 0 -148.41 0 0 -1020.88 -58.16 0 0 854.42c0,53.48 -12.7,95.6 -38.11,126.35 -25.39,30.75 -62.16,46.14 -110.31,46.14l-20.05 2c-6.69,-1.34 -13.37,-2.33 -20.06,-3.01 -6.69,-0.67 -13.37,-1.66 -20.07,-3.01 -2.66,0 -5.68,-0.33 -9.02,-1 -3.34,-0.67 -7.02,-1 -11.03,-1l0 -124.35 20.05 0zm591.8 -342.97c0,-42.79 3.35,-76.21 10.03,-100.28 6.69,-24.08 25.4,-46.8 56.16,-68.19 17.38,-10.71 39.11,-22.07 65.19,-34.1 26.06,-12.02 58.49,-25.4 97.26,-40.11l0 -286.81c0,-9.35 -3.01,-16.71 -9.03,-22.06 -6.02,-5.35 -13.04,-8.68 -21.06,-10.03 -8.02,1.35 -15.04,4.68 -21.06,10.03 -6.02,5.35 -9.03,12.71 -9.03,22.06l0 240.68 -20.06 0 -148.41 0 0 -280.78c0,-40.12 19.72,-70.21 59.17,-90.26 39.44,-20.06 82.55,-30.08 129.35,-30.08l20.06 0c1.34,0 2.34,0 3.02,0 0.66,0 1.67,0 3,0 45.46,1.34 86.91,12.03 124.35,32.09 37.44,20.07 56.16,49.47 56.16,88.26l0 1036.92 -20.06 0 -146.41 0 0 -18.04c-25.39,8.02 -47.8,14.03 -67.19,18.04 -19.39,4.02 -36.44,6.03 -51.14,6.03l-20.06 2c-30.74,-1.34 -53.48,-9.68 -68.19,-25.07 -14.7,-15.38 -22.06,-35.77 -22.06,-61.17l0 -389.1zm228.64 -48.14c0,-9.35 -3.01,-16.7 -9.03,-22.05 -6.02,-5.36 -13.04,-8.69 -21.06,-10.03 -8.02,1.34 -15.04,4.67 -21.06,10.03 -6.02,5.35 -9.03,12.7 -9.03,22.05l0 363.03c0,8.02 3.01,14.71 9.03,20.06 6.02,5.35 12.37,9.36 19.05,12.03 9.37,-1.35 17.05,-5.01 23.06,-11.03 6.02,-6.02 9.03,-13.04 9.03,-21.06l0 -363.03zm651.97 -86.23c18.72,6.69 33.09,16.71 43.12,30.08 10.03,13.36 17.05,28.08 21.05,44.12 1.35,4 2.35,8.69 3.02,14.04 0.67,5.35 0.99,10.03 0.99,14.04l0 375.06c0,1.34 0,3.01 0,5.01 0,2.02 0,3.68 0,5.01 -2.66,29.42 -14.03,55.82 -34.09,79.23 -20.06,23.39 -50.14,35.09 -90.25,35.09l-20.06 0 -250.7 0 0 -1145.23 20.06 0 250.7 0c30.75,0 59.17,12.37 85.24,37.1 26.07,24.74 39.1,53.15 39.1,85.25l0 318.9c0,2.66 0,5.34 0,8.02 0,2.66 -0.66,5.34 -2,8.01 -1.34,17.39 -7.35,34.1 -18.05,50.15 -10.7,16.04 -26.74,28.08 -48.13,36.1zm-138.39 477.34c10.7,0 20.06,-4.01 28.09,-12.03 8.01,-8.02 12.02,-17.38 12.02,-28.08l0 -334.95c0,-10.7 -4.01,-20.06 -12.02,-28.08 -8.03,-8.02 -17.39,-12.03 -28.09,-12.03l-18.05 0 0 415.17 18.05 0zm40.11 -858.42c0,-1.34 0,-2.68 0,-4.02 -1.34,-8.02 -5.35,-15.37 -12.02,-22.06 -6.69,-6.68 -14.05,-10.69 -22.07,-12.03 -1.34,0 -2.67,0 -4.01,0l-20.06 0 0 357.01 18.05 0c8.02,0 16.04,-3.34 24.07,-10.03 8.02,-6.68 12.7,-14.04 14.04,-22.05 1.34,-1.35 2.01,-2.68 2.01,-4.02 0,-1.34 0,-2.67 0,-4l0 -278.79z"/>
  <rect class="fil2" x="7117.36" y="417.27" width="2520.87" height="436.28"/>
  <rect class="fil1" x="9814.66" y="1195.9" width="345.65" height="194.26"/>
 </g>
</svg>
