<svg width="972" height="56" viewBox="0 0 972 56" fill="none" xmlns="http://www.w3.org/2000/svg">
<path d="M44.6055 54H31.457V11.6367H13.5625V54H0.414062V1.65234H44.6055V54ZM49.8438 54L67.5273 1.65234H81.8711L99.5547 54H86.0195L82.75 43.3125H66.2969L63.0273 54H49.8438ZM79.8672 33.8203L74.5234 16.5586L69.1797 33.8203H79.8672ZM152.43 27.8438C152.43 36.3047 150.168 42.9609 145.645 47.8125C141.121 52.6641 134.922 55.0898 127.047 55.0898C119.148 55.0898 112.949 52.6406 108.449 47.7422C103.949 42.8203 101.699 36.1875 101.699 27.8438C101.699 19.4297 103.949 12.7852 108.449 7.91016C112.949 3.01172 119.148 0.5625 127.047 0.5625C134.922 0.5625 141.121 3 145.645 7.875C150.168 12.7266 152.43 19.3828 152.43 27.8438ZM138.859 27.8086C138.859 24.6914 138.531 22.043 137.875 19.8633C137.242 17.6602 136.387 15.8555 135.309 14.4492C134.184 13.0195 132.906 12 131.477 11.3906C130.07 10.7578 128.605 10.4414 127.082 10.4414C125.465 10.4414 124 10.7344 122.688 11.3203C121.375 11.8828 120.109 12.9023 118.891 14.3789C117.812 15.7383 116.934 17.543 116.254 19.793C115.598 22.043 115.27 24.7266 115.27 27.8438C115.27 31.0547 115.586 33.7266 116.219 35.8594C116.852 37.9688 117.719 39.7383 118.82 41.168C119.945 42.6211 121.223 43.6641 122.652 44.2969C124.082 44.9062 125.559 45.2109 127.082 45.2109C128.629 45.2109 130.129 44.8828 131.582 44.2266C133.035 43.5469 134.289 42.5039 135.344 41.0977C136.469 39.5742 137.336 37.8047 137.945 35.7891C138.555 33.75 138.859 31.0898 138.859 27.8086ZM220.141 48.7969L200.453 33.1172V28.582L220.141 12.9375V23.3438L210.262 30.8672L220.141 38.3906V48.7969ZM200.102 48.7969L180.414 33.1172V28.582L200.102 12.9375V23.3438L190.223 30.8672L200.102 38.3906V48.7969ZM254.523 55.0195C246.672 55.0195 240.438 52.6523 235.82 47.918C231.203 43.1602 228.895 36.4805 228.895 27.8789C228.895 19.582 231.203 12.9727 235.82 8.05078C240.461 3.10547 246.707 0.632812 254.559 0.632812C256.645 0.632812 258.52 0.75 260.184 0.984375C261.848 1.21875 263.441 1.54688 264.965 1.96875C266.16 2.32031 267.461 2.80078 268.867 3.41016C270.273 4.01953 271.41 4.54687 272.277 4.99219V17.4727H270.941C270.309 16.9102 269.512 16.2422 268.551 15.4688C267.59 14.6719 266.5 13.8984 265.281 13.1484C264.062 12.3984 262.715 11.7656 261.238 11.25C259.785 10.7109 258.262 10.4414 256.668 10.4414C254.77 10.4414 253.023 10.7461 251.43 11.3555C249.859 11.9414 248.359 12.9727 246.93 14.4492C245.617 15.7852 244.539 17.5898 243.695 19.8633C242.875 22.1367 242.465 24.8203 242.465 27.9141C242.465 31.1719 242.898 33.9141 243.766 36.1406C244.633 38.3438 245.77 40.125 247.176 41.4844C248.535 42.7969 250.047 43.7461 251.711 44.332C253.398 44.918 255.074 45.2109 256.738 45.2109C258.473 45.2109 260.125 44.9297 261.695 44.3672C263.266 43.7812 264.59 43.1367 265.668 42.4336C266.84 41.707 267.871 40.9688 268.762 40.2188C269.652 39.4688 270.426 38.8008 271.082 38.2148H272.277V50.5195C271.316 50.9648 270.203 51.4805 268.938 52.0664C267.672 52.6289 266.371 53.1094 265.035 53.5078C263.395 54 261.859 54.375 260.43 54.6328C259 54.8906 257.031 55.0195 254.523 55.0195ZM325.117 54H311.969V11.6367H298.75C298.656 13.6758 298.562 15.5859 298.469 17.3672C298.398 19.125 298.316 20.8008 298.223 22.3945C297.965 26.9648 297.543 30.9141 296.957 34.2422C296.371 37.5469 295.703 40.2539 294.953 42.3633C294.133 44.6133 293.301 46.3828 292.457 47.6719C291.613 48.9609 290.816 49.9805 290.066 50.7305C288.941 51.8555 287.535 52.7461 285.848 53.4023C284.16 54.0352 282.496 54.3516 280.855 54.3516C279.754 54.3516 278.547 54.3047 277.234 54.2109C275.922 54.1172 275.09 54.0469 274.738 54V42.4336H275.23C275.465 42.457 275.688 42.4805 275.898 42.5039C276.133 42.5273 276.426 42.5391 276.777 42.5391C277.363 42.5391 278.113 42.4453 279.027 42.2578C279.941 42.0703 280.633 41.7539 281.102 41.3086C282.789 39.7148 283.938 37.2539 284.547 33.9258C285.18 30.5742 285.66 25.7461 285.988 19.4414C286.129 16.5586 286.211 13.9687 286.234 11.6719C286.281 9.375 286.375 6.03516 286.516 1.65234H325.117V54ZM330.32 54L348.004 1.65234H362.348L380.031 54H366.496L363.227 43.3125H346.773L343.504 54H330.32ZM360.344 33.8203L355 16.5586L349.656 33.8203H360.344ZM427.105 37.9688C427.105 40.5703 426.613 42.8555 425.629 44.8242C424.645 46.793 423.32 48.4219 421.656 49.7109C419.688 51.2578 417.52 52.3594 415.152 53.0156C412.809 53.6719 409.82 54 406.188 54H385.234V1.65234H403.727C407.57 1.65234 410.477 1.80469 412.445 2.10938C414.438 2.39062 416.301 3 418.035 3.9375C419.91 4.94531 421.305 6.29297 422.219 7.98047C423.156 9.66797 423.625 11.6133 423.625 13.8164C423.625 16.3711 422.98 18.6445 421.691 20.6367C420.426 22.6289 418.668 24.0938 416.418 25.0312V25.3125C419.652 25.9922 422.242 27.3867 424.188 29.4961C426.133 31.582 427.105 34.4062 427.105 37.9688ZM410.266 16.4531C410.266 15.6094 410.043 14.7422 409.598 13.8516C409.176 12.9609 408.508 12.3164 407.594 11.918C406.727 11.543 405.695 11.3438 404.5 11.3203C403.328 11.2734 401.57 11.25 399.227 11.25H398.312V22.3242H399.965C402.215 22.3242 403.785 22.3008 404.676 22.2539C405.59 22.207 406.527 21.9609 407.488 21.5156C408.543 21.0234 409.27 20.3438 409.668 19.4766C410.066 18.6094 410.266 17.6016 410.266 16.4531ZM413.57 37.7227C413.57 36.1055 413.242 34.8398 412.586 33.9258C411.93 33.0117 410.945 32.3203 409.633 31.8516C408.836 31.5469 407.734 31.3828 406.328 31.3594C404.945 31.3125 403.082 31.2891 400.738 31.2891H398.312V44.4023H399.016C402.438 44.4023 404.805 44.3789 406.117 44.332C407.43 44.2852 408.766 43.9688 410.125 43.3828C411.32 42.8672 412.188 42.1172 412.727 41.1328C413.289 40.125 413.57 38.9883 413.57 37.7227ZM478.855 54H465.707V30.7969H447.812V54H434.664V1.65234H447.812V20.8125H465.707V1.65234H478.855V54ZM489.719 54V1.65234H525.121V11.6367H502.797V20.8125H523.363V30.7969H502.797V44.0156H525.121V54H489.719ZM589.738 27.4219C589.738 33.7266 587.605 38.7188 583.34 42.3984C579.074 46.0547 573.531 48.1758 566.711 48.7617V54.4219H553.633V48.7617C546.812 48.1758 541.27 46.0781 537.004 42.4688C532.738 38.8359 530.605 33.8203 530.605 27.4219C530.605 21.0469 532.68 16.1016 536.828 12.5859C540.977 9.07031 546.578 7.00781 553.633 6.39844V1.125H566.711V6.39844C573.555 6.89062 579.098 8.91797 583.34 12.4805C587.605 16.0195 589.738 21 589.738 27.4219ZM576.238 27.2109C576.238 23.9062 575.395 21.2109 573.707 19.125C572.02 17.0156 569.688 15.6914 566.711 15.1523V40.043C570.156 39.293 572.605 37.875 574.059 35.7891C575.512 33.6797 576.238 30.8203 576.238 27.2109ZM553.633 40.043V15.1523C550.539 15.7148 548.172 17.0508 546.531 19.1602C544.914 21.2461 544.105 23.9297 544.105 27.2109C544.105 30.7734 544.867 33.6328 546.391 35.7891C547.914 37.9219 550.328 39.3398 553.633 40.043ZM607.211 54V11.6367H591.742V1.65234H635.828V11.6367H620.359V54H607.211ZM683.008 37.2656C683.008 39.8203 682.516 42.1758 681.531 44.332C680.57 46.4648 679.246 48.2109 677.559 49.5703C675.543 51.1875 673.363 52.3359 671.02 53.0156C668.699 53.6719 665.863 54 662.512 54H641.242V1.65234H654.355V21.3047H662.723C665.793 21.3047 668.57 21.5273 671.055 21.9727C673.539 22.3945 675.801 23.4023 677.84 24.9961C679.645 26.4023 680.957 28.1719 681.777 30.3047C682.598 32.4141 683.008 34.7344 683.008 37.2656ZM669.438 37.6523C669.438 36.7852 669.344 35.9648 669.156 35.1914C668.969 34.418 668.559 33.7031 667.926 33.0469C667.293 32.4141 666.426 31.9102 665.324 31.5352C664.223 31.1602 662.699 30.9727 660.754 30.9727H654.355V44.2969H660.754C663.426 44.2969 665.535 43.7344 667.082 42.6094C668.652 41.4609 669.438 39.8086 669.438 37.6523ZM711.73 35.7891H688.422V26.0156H711.73V35.7891ZM761.793 54H748.715V34.8047H743.758L730.574 54H714.965L730.574 32.3086C727.363 30.9258 724.879 28.9805 723.121 26.4727C721.387 23.9648 720.52 20.7305 720.52 16.7695C720.52 14.0977 721.105 11.7656 722.277 9.77344C723.473 7.78125 724.984 6.15234 726.812 4.88672C728.406 3.78516 730.34 2.97656 732.613 2.46094C734.91 1.92188 737.535 1.65234 740.488 1.65234H761.793V54ZM748.715 25.3828V11.2852H744.496C742.457 11.2852 740.887 11.3555 739.785 11.4961C738.684 11.6133 737.617 12.0586 736.586 12.832C735.789 13.418 735.18 14.1914 734.758 15.1523C734.336 16.0898 734.125 17.1328 734.125 18.2812C734.125 19.4766 734.348 20.5547 734.793 21.5156C735.238 22.4531 735.859 23.2266 736.656 23.8359C737.547 24.5391 738.59 24.9727 739.785 25.1367C741.004 25.3008 742.598 25.3828 744.566 25.3828H748.715ZM816.848 54H803.699V30.7969H785.805V54H772.656V1.65234H785.805V20.8125H803.699V1.65234H816.848V54ZM875.383 27.8438C875.383 36.3047 873.121 42.9609 868.598 47.8125C864.074 52.6641 857.875 55.0898 850 55.0898C842.102 55.0898 835.902 52.6406 831.402 47.7422C826.902 42.8203 824.652 36.1875 824.652 27.8438C824.652 19.4297 826.902 12.7852 831.402 7.91016C835.902 3.01172 842.102 0.5625 850 0.5625C857.875 0.5625 864.074 3 868.598 7.875C873.121 12.7266 875.383 19.3828 875.383 27.8438ZM861.812 27.8086C861.812 24.6914 861.484 22.043 860.828 19.8633C860.195 17.6602 859.34 15.8555 858.262 14.4492C857.137 13.0195 855.859 12 854.43 11.3906C853.023 10.7578 851.559 10.4414 850.035 10.4414C848.418 10.4414 846.953 10.7344 845.641 11.3203C844.328 11.8828 843.062 12.9023 841.844 14.3789C840.766 15.7383 839.887 17.543 839.207 19.793C838.551 22.043 838.223 24.7266 838.223 27.8438C838.223 31.0547 838.539 33.7266 839.172 35.8594C839.805 37.9688 840.672 39.7383 841.773 41.168C842.898 42.6211 844.176 43.6641 845.605 44.2969C847.035 44.9062 848.512 45.2109 850.035 45.2109C851.582 45.2109 853.082 44.8828 854.535 44.2266C855.988 43.5469 857.242 42.5039 858.297 41.0977C859.422 39.5742 860.289 37.8047 860.898 35.7891C861.508 33.75 861.812 31.0898 861.812 27.8086ZM905.758 55.0195C897.906 55.0195 891.672 52.6523 887.055 47.918C882.438 43.1602 880.129 36.4805 880.129 27.8789C880.129 19.582 882.438 12.9727 887.055 8.05078C891.695 3.10547 897.941 0.632812 905.793 0.632812C907.879 0.632812 909.754 0.75 911.418 0.984375C913.082 1.21875 914.676 1.54688 916.199 1.96875C917.395 2.32031 918.695 2.80078 920.102 3.41016C921.508 4.01953 922.645 4.54687 923.512 4.99219V17.4727H922.176C921.543 16.9102 920.746 16.2422 919.785 15.4688C918.824 14.6719 917.734 13.8984 916.516 13.1484C915.297 12.3984 913.949 11.7656 912.473 11.25C911.02 10.7109 909.496 10.4414 907.902 10.4414C906.004 10.4414 904.258 10.7461 902.664 11.3555C901.094 11.9414 899.594 12.9727 898.164 14.4492C896.852 15.7852 895.773 17.5898 894.93 19.8633C894.109 22.1367 893.699 24.8203 893.699 27.9141C893.699 31.1719 894.133 33.9141 895 36.1406C895.867 38.3438 897.004 40.125 898.41 41.4844C899.77 42.7969 901.281 43.7461 902.945 44.332C904.633 44.918 906.309 45.2109 907.973 45.2109C909.707 45.2109 911.359 44.9297 912.93 44.3672C914.5 43.7812 915.824 43.1367 916.902 42.4336C918.074 41.707 919.105 40.9688 919.996 40.2188C920.887 39.4688 921.66 38.8008 922.316 38.2148H923.512V50.5195C922.551 50.9648 921.438 51.4805 920.172 52.0664C918.906 52.6289 917.605 53.1094 916.27 53.5078C914.629 54 913.094 54.375 911.664 54.6328C910.234 54.8906 908.266 55.0195 905.758 55.0195ZM971.992 33.1172L952.305 48.7969V38.3906L962.184 30.8672L952.305 23.3438V12.9375L971.992 28.582V33.1172ZM951.953 33.1172L932.266 48.7969V38.3906L942.145 30.8672L932.266 23.3438V12.9375L951.953 28.582V33.1172Z" fill="white"/>
</svg>
