<svg width="600" height="600" viewBox="0 0 600 600" fill="none" xmlns="http://www.w3.org/2000/svg">
<path d="M224.015 236.17H375.778C376.041 236.17 376.291 236.113 376.555 236.093C379.43 235.814 382.091 234.449 383.995 232.277C385.9 230.105 386.905 227.289 386.806 224.401C386.707 221.514 385.511 218.773 383.462 216.737C381.413 214.7 378.665 213.521 375.778 213.439H376.458C372.208 198.899 361.77 155.599 321.668 144.314L320.23 164.022L316 221.65H311.801V142.048C311.774 142.042 311.745 142.042 311.718 142.048C309.15 135.513 303.661 131 297.319 131C291.092 131 285.712 135.359 283.068 141.695L282.727 141.765V221.65H278.535V217.708L275.249 166.217L273.785 143.576C231.076 154.63 225.433 203.078 223.713 213.439H223.983C221.015 213.51 218.193 214.738 216.119 216.862C214.045 218.986 212.884 221.836 212.884 224.805C212.884 227.773 214.045 230.624 216.119 232.748C218.193 234.871 221.015 236.1 223.983 236.17H224.015Z" fill="#5B607D"/>
<path d="M230.395 425.263H215.053V432.164H230.395V425.263Z" fill="#5B607D"/>
<path d="M378.981 425.263H363.638V432.164H378.981V425.263Z" fill="#5B607D"/>
<path d="M438.631 423.324C437.847 410.235 434.407 399.463 429.207 390.533C428.128 388.691 426.966 386.945 425.747 385.256C405.634 357.332 367.053 349.801 344.945 344.274C336.336 342.124 331.252 339.274 328.363 336.276C358.695 324.239 380.528 290.659 380.528 251.083C380.51 247.389 380.295 243.699 379.886 240.028H219.912C219.503 243.699 219.289 247.389 219.27 251.083C219.27 290.659 241.097 324.265 271.429 336.276C268.546 339.274 263.462 342.124 254.86 344.274C224.932 351.753 164.788 362.891 161.136 423.324C159.396 434.301 157.284 450.337 156 470H443.734C442.469 450.331 440.377 434.295 438.631 423.324ZM350.889 348.511L352.873 348.203L380.284 356.844L393.393 416.102H350.889V348.511ZM216.215 356.857L243.613 348.216L245.603 348.524V416.102H203.1L216.215 356.857ZM395.793 466.2H202.599V421.34H395.793V466.2Z" fill="#5B607D"/>
</svg>
